<?xml version="1.0" standalone="no"?>
<svg xmlns="http://www.w3.org/2000/svg" width="256" height="256"><defs><clipPath id="clip-path-dot-color"><rect x="16" y="76" width="7" height="7" transform="rotate(0,19.5,79.5)"/><rect x="16" y="88" width="7" height="7" transform="rotate(0,19.5,91.5)"/><rect x="16" y="94" width="7" height="7" transform="rotate(0,19.5,97.5)"/><rect x="16" y="112" width="7" height="7" transform="rotate(0,19.5,115.5)"/><rect x="16" y="118" width="7" height="7" transform="rotate(0,19.5,121.5)"/><rect x="16" y="131" width="7" height="7" transform="rotate(0,19.5,134.5)"/><rect x="16" y="137" width="7" height="7" transform="rotate(0,19.5,140.5)"/><rect x="16" y="149" width="7" height="7" transform="rotate(0,19.5,152.5)"/><rect x="16" y="155" width="7" height="7" transform="rotate(0,19.5,158.5)"/><rect x="16" y="173" width="7" height="7" transform="rotate(0,19.5,176.5)"/><rect x="22" y="64" width="7" height="7" transform="rotate(0,25.5,67.5)"/><rect x="22" y="100" width="7" height="7" transform="rotate(0,25.5,103.5)"/><rect x="22" y="118" width="7" height="7" transform="rotate(0,25.5,121.5)"/><rect x="22" y="131" width="7" height="7" transform="rotate(0,25.5,134.5)"/><rect x="22" y="185" width="7" height="7" transform="rotate(0,25.5,188.5)"/><rect x="28" y="76" width="7" height="7" transform="rotate(0,31.5,79.5)"/><rect x="28" y="88" width="7" height="7" transform="rotate(0,31.5,91.5)"/><rect x="28" y="94" width="7" height="7" transform="rotate(0,31.5,97.5)"/><rect x="28" y="100" width="7" height="7" transform="rotate(0,31.5,103.5)"/><rect x="28" y="118" width="7" height="7" transform="rotate(0,31.5,121.5)"/><rect x="28" y="124" width="7" height="7" transform="rotate(0,31.5,127.5)"/><rect x="28" y="137" width="7" height="7" transform="rotate(0,31.5,140.5)"/><rect x="28" y="143" width="7" height="7" transform="rotate(0,31.5,146.5)"/><rect x="28" y="149" width="7" height="7" transform="rotate(0,31.5,152.5)"/><rect x="28" y="155" width="7" height="7" transform="rotate(0,31.5,158.5)"/><rect x="28" y="167" width="7" height="7" transform="rotate(0,31.5,170.5)"/><rect x="28" y="173" width="7" height="7" transform="rotate(0,31.5,176.5)"/><rect x="28" y="185" width="7" height="7" transform="rotate(0,31.5,188.5)"/><rect x="34" y="64" width="7" height="7" transform="rotate(0,37.5,67.5)"/><rect x="34" y="82" width="7" height="7" transform="rotate(0,37.5,85.5)"/><rect x="34" y="94" width="7" height="7" transform="rotate(0,37.5,97.5)"/><rect x="34" y="106" width="7" height="7" transform="rotate(0,37.5,109.5)"/><rect x="34" y="118" width="7" height="7" transform="rotate(0,37.5,121.5)"/><rect x="34" y="143" width="7" height="7" transform="rotate(0,37.5,146.5)"/><rect x="34" y="155" width="7" height="7" transform="rotate(0,37.5,158.5)"/><rect x="34" y="161" width="7" height="7" transform="rotate(0,37.5,164.5)"/><rect x="34" y="167" width="7" height="7" transform="rotate(0,37.5,170.5)"/><rect x="34" y="179" width="7" height="7" transform="rotate(0,37.5,182.5)"/><rect x="34" y="185" width="7" height="7" transform="rotate(0,37.5,188.5)"/><rect x="40" y="64" width="7" height="7" transform="rotate(0,43.5,67.5)"/><rect x="40" y="70" width="7" height="7" transform="rotate(0,43.5,73.5)"/><rect x="40" y="94" width="7" height="7" transform="rotate(0,43.5,97.5)"/><rect x="40" y="112" width="7" height="7" transform="rotate(0,43.5,115.5)"/><rect x="40" y="118" width="7" height="7" transform="rotate(0,43.5,121.5)"/><rect x="40" y="131" width="7" height="7" transform="rotate(0,43.5,134.5)"/><rect x="40" y="149" width="7" height="7" transform="rotate(0,43.5,152.5)"/><rect x="40" y="167" width="7" height="7" transform="rotate(0,43.5,170.5)"/><rect x="40" y="173" width="7" height="7" transform="rotate(0,43.5,176.5)"/><rect x="46" y="70" width="7" height="7" transform="rotate(0,49.5,73.5)"/><rect x="46" y="88" width="7" height="7" transform="rotate(0,49.5,91.5)"/><rect x="46" y="94" width="7" height="7" transform="rotate(0,49.5,97.5)"/><rect x="46" y="100" width="7" height="7" transform="rotate(0,49.5,103.5)"/><rect x="46" y="124" width="7" height="7" transform="rotate(0,49.5,127.5)"/><rect x="46" y="137" width="7" height="7" transform="rotate(0,49.5,140.5)"/><rect x="46" y="143" width="7" height="7" transform="rotate(0,49.5,146.5)"/><rect x="46" y="155" width="7" height="7" transform="rotate(0,49.5,158.5)"/><rect x="46" y="167" width="7" height="7" transform="rotate(0,49.5,170.5)"/><rect x="46" y="173" width="7" height="7" transform="rotate(0,49.5,176.5)"/><rect x="52" y="64" width="7" height="7" transform="rotate(0,55.5,67.5)"/><rect x="52" y="76" width="7" height="7" transform="rotate(0,55.5,79.5)"/><rect x="52" y="88" width="7" height="7" transform="rotate(0,55.5,91.5)"/><rect x="52" y="100" width="7" height="7" transform="rotate(0,55.5,103.5)"/><rect x="52" y="112" width="7" height="7" transform="rotate(0,55.5,115.5)"/><rect x="52" y="124" width="7" height="7" transform="rotate(0,55.5,127.5)"/><rect x="52" y="137" width="7" height="7" transform="rotate(0,55.5,140.5)"/><rect x="52" y="149" width="7" height="7" transform="rotate(0,55.5,152.5)"/><rect x="52" y="161" width="7" height="7" transform="rotate(0,55.5,164.5)"/><rect x="52" y="173" width="7" height="7" transform="rotate(0,55.5,176.5)"/><rect x="52" y="185" width="7" height="7" transform="rotate(0,55.5,188.5)"/><rect x="58" y="64" width="7" height="7" transform="rotate(0,61.5,67.5)"/><rect x="58" y="118" width="7" height="7" transform="rotate(0,61.5,121.5)"/><rect x="58" y="124" width="7" height="7" transform="rotate(0,61.5,127.5)"/><rect x="58" y="149" width="7" height="7" transform="rotate(0,61.5,152.5)"/><rect x="58" y="155" width="7" height="7" transform="rotate(0,61.5,158.5)"/><rect x="58" y="161" width="7" height="7" transform="rotate(0,61.5,164.5)"/><rect x="58" y="167" width="7" height="7" transform="rotate(0,61.5,170.5)"/><rect x="58" y="173" width="7" height="7" transform="rotate(0,61.5,176.5)"/><rect x="58" y="179" width="7" height="7" transform="rotate(0,61.5,182.5)"/><rect x="58" y="185" width="7" height="7" transform="rotate(0,61.5,188.5)"/><rect x="64" y="22" width="7" height="7" transform="rotate(0,67.5,25.5)"/><rect x="64" y="34" width="7" height="7" transform="rotate(0,67.5,37.5)"/><rect x="64" y="40" width="7" height="7" transform="rotate(0,67.5,43.5)"/><rect x="64" y="46" width="7" height="7" transform="rotate(0,67.5,49.5)"/><rect x="64" y="52" width="7" height="7" transform="rotate(0,67.5,55.5)"/><rect x="64" y="64" width="7" height="7" transform="rotate(0,67.5,67.5)"/><rect x="64" y="88" width="7" height="7" transform="rotate(0,67.5,91.5)"/><rect x="64" y="94" width="7" height="7" transform="rotate(0,67.5,97.5)"/><rect x="64" y="100" width="7" height="7" transform="rotate(0,67.5,103.5)"/><rect x="64" y="106" width="7" height="7" transform="rotate(0,67.5,109.5)"/><rect x="64" y="112" width="7" height="7" transform="rotate(0,67.5,115.5)"/><rect x="64" y="118" width="7" height="7" transform="rotate(0,67.5,121.5)"/><rect x="64" y="131" width="7" height="7" transform="rotate(0,67.5,134.5)"/><rect x="64" y="137" width="7" height="7" transform="rotate(0,67.5,140.5)"/><rect x="64" y="143" width="7" height="7" transform="rotate(0,67.5,146.5)"/><rect x="64" y="161" width="7" height="7" transform="rotate(0,67.5,164.5)"/><rect x="64" y="167" width="7" height="7" transform="rotate(0,67.5,170.5)"/><rect x="64" y="173" width="7" height="7" transform="rotate(0,67.5,176.5)"/><rect x="64" y="185" width="7" height="7" transform="rotate(0,67.5,188.5)"/><rect x="64" y="191" width="7" height="7" transform="rotate(0,67.5,194.5)"/><rect x="64" y="197" width="7" height="7" transform="rotate(0,67.5,200.5)"/><rect x="64" y="209" width="7" height="7" transform="rotate(0,67.5,212.5)"/><rect x="64" y="215" width="7" height="7" transform="rotate(0,67.5,218.5)"/><rect x="64" y="227" width="7" height="7" transform="rotate(0,67.5,230.5)"/><rect x="70" y="16" width="7" height="7" transform="rotate(0,73.5,19.5)"/><rect x="70" y="28" width="7" height="7" transform="rotate(0,73.5,31.5)"/><rect x="70" y="46" width="7" height="7" transform="rotate(0,73.5,49.5)"/><rect x="70" y="70" width="7" height="7" transform="rotate(0,73.5,73.5)"/><rect x="70" y="76" width="7" height="7" transform="rotate(0,73.5,79.5)"/><rect x="70" y="88" width="7" height="7" transform="rotate(0,73.5,91.5)"/><rect x="70" y="100" width="7" height="7" transform="rotate(0,73.5,103.5)"/><rect x="70" y="112" width="7" height="7" transform="rotate(0,73.5,115.5)"/><rect x="70" y="124" width="7" height="7" transform="rotate(0,73.5,127.5)"/><rect x="70" y="143" width="7" height="7" transform="rotate(0,73.5,146.5)"/><rect x="70" y="155" width="7" height="7" transform="rotate(0,73.5,158.5)"/><rect x="70" y="161" width="7" height="7" transform="rotate(0,73.5,164.5)"/><rect x="70" y="167" width="7" height="7" transform="rotate(0,73.5,170.5)"/><rect x="70" y="179" width="7" height="7" transform="rotate(0,73.5,182.5)"/><rect x="70" y="203" width="7" height="7" transform="rotate(0,73.5,206.5)"/><rect x="70" y="209" width="7" height="7" transform="rotate(0,73.5,212.5)"/><rect x="70" y="215" width="7" height="7" transform="rotate(0,73.5,218.5)"/><rect x="70" y="227" width="7" height="7" transform="rotate(0,73.5,230.5)"/><rect x="76" y="22" width="7" height="7" transform="rotate(0,79.5,25.5)"/><rect x="76" y="28" width="7" height="7" transform="rotate(0,79.5,31.5)"/><rect x="76" y="52" width="7" height="7" transform="rotate(0,79.5,55.5)"/><rect x="76" y="58" width="7" height="7" transform="rotate(0,79.5,61.5)"/><rect x="76" y="64" width="7" height="7" transform="rotate(0,79.5,67.5)"/><rect x="76" y="100" width="7" height="7" transform="rotate(0,79.5,103.5)"/><rect x="76" y="112" width="7" height="7" transform="rotate(0,79.5,115.5)"/><rect x="76" y="149" width="7" height="7" transform="rotate(0,79.5,152.5)"/><rect x="76" y="155" width="7" height="7" transform="rotate(0,79.5,158.5)"/><rect x="76" y="161" width="7" height="7" transform="rotate(0,79.5,164.5)"/><rect x="76" y="167" width="7" height="7" transform="rotate(0,79.5,170.5)"/><rect x="76" y="179" width="7" height="7" transform="rotate(0,79.5,182.5)"/><rect x="76" y="185" width="7" height="7" transform="rotate(0,79.5,188.5)"/><rect x="76" y="191" width="7" height="7" transform="rotate(0,79.5,194.5)"/><rect x="76" y="197" width="7" height="7" transform="rotate(0,79.5,200.5)"/><rect x="76" y="203" width="7" height="7" transform="rotate(0,79.5,206.5)"/><rect x="76" y="209" width="7" height="7" transform="rotate(0,79.5,212.5)"/><rect x="76" y="215" width="7" height="7" transform="rotate(0,79.5,218.5)"/><rect x="76" y="233" width="7" height="7" transform="rotate(0,79.5,236.5)"/><rect x="82" y="16" width="7" height="7" transform="rotate(0,85.5,19.5)"/><rect x="82" y="28" width="7" height="7" transform="rotate(0,85.5,31.5)"/><rect x="82" y="58" width="7" height="7" transform="rotate(0,85.5,61.5)"/><rect x="82" y="76" width="7" height="7" transform="rotate(0,85.5,79.5)"/><rect x="82" y="94" width="7" height="7" transform="rotate(0,85.5,97.5)"/><rect x="82" y="100" width="7" height="7" transform="rotate(0,85.5,103.5)"/><rect x="82" y="112" width="7" height="7" transform="rotate(0,85.5,115.5)"/><rect x="82" y="131" width="7" height="7" transform="rotate(0,85.5,134.5)"/><rect x="82" y="161" width="7" height="7" transform="rotate(0,85.5,164.5)"/><rect x="82" y="173" width="7" height="7" transform="rotate(0,85.5,176.5)"/><rect x="82" y="179" width="7" height="7" transform="rotate(0,85.5,182.5)"/><rect x="82" y="191" width="7" height="7" transform="rotate(0,85.5,194.5)"/><rect x="82" y="197" width="7" height="7" transform="rotate(0,85.5,200.5)"/><rect x="82" y="215" width="7" height="7" transform="rotate(0,85.5,218.5)"/><rect x="82" y="221" width="7" height="7" transform="rotate(0,85.5,224.5)"/><rect x="88" y="16" width="7" height="7" transform="rotate(0,91.5,19.5)"/><rect x="88" y="22" width="7" height="7" transform="rotate(0,91.5,25.5)"/><rect x="88" y="28" width="7" height="7" transform="rotate(0,91.5,31.5)"/><rect x="88" y="34" width="7" height="7" transform="rotate(0,91.5,37.5)"/><rect x="88" y="46" width="7" height="7" transform="rotate(0,91.5,49.5)"/><rect x="88" y="52" width="7" height="7" transform="rotate(0,91.5,55.5)"/><rect x="88" y="64" width="7" height="7" transform="rotate(0,91.5,67.5)"/><rect x="88" y="76" width="7" height="7" transform="rotate(0,91.5,79.5)"/><rect x="88" y="88" width="7" height="7" transform="rotate(0,91.5,91.5)"/><rect x="88" y="94" width="7" height="7" transform="rotate(0,91.5,97.5)"/><rect x="88" y="112" width="7" height="7" transform="rotate(0,91.5,115.5)"/><rect x="88" y="118" width="7" height="7" transform="rotate(0,91.5,121.5)"/><rect x="88" y="131" width="7" height="7" transform="rotate(0,91.5,134.5)"/><rect x="88" y="137" width="7" height="7" transform="rotate(0,91.5,140.5)"/><rect x="88" y="161" width="7" height="7" transform="rotate(0,91.5,164.5)"/><rect x="88" y="197" width="7" height="7" transform="rotate(0,91.5,200.5)"/><rect x="88" y="215" width="7" height="7" transform="rotate(0,91.5,218.5)"/><rect x="94" y="22" width="7" height="7" transform="rotate(0,97.5,25.5)"/><rect x="94" y="28" width="7" height="7" transform="rotate(0,97.5,31.5)"/><rect x="94" y="34" width="7" height="7" transform="rotate(0,97.5,37.5)"/><rect x="94" y="76" width="7" height="7" transform="rotate(0,97.5,79.5)"/><rect x="94" y="106" width="7" height="7" transform="rotate(0,97.5,109.5)"/><rect x="94" y="112" width="7" height="7" transform="rotate(0,97.5,115.5)"/><rect x="94" y="137" width="7" height="7" transform="rotate(0,97.5,140.5)"/><rect x="94" y="155" width="7" height="7" transform="rotate(0,97.5,158.5)"/><rect x="94" y="173" width="7" height="7" transform="rotate(0,97.5,176.5)"/><rect x="94" y="185" width="7" height="7" transform="rotate(0,97.5,188.5)"/><rect x="94" y="191" width="7" height="7" transform="rotate(0,97.5,194.5)"/><rect x="94" y="209" width="7" height="7" transform="rotate(0,97.5,212.5)"/><rect x="94" y="221" width="7" height="7" transform="rotate(0,97.5,224.5)"/><rect x="100" y="16" width="7" height="7" transform="rotate(0,103.5,19.5)"/><rect x="100" y="22" width="7" height="7" transform="rotate(0,103.5,25.5)"/><rect x="100" y="46" width="7" height="7" transform="rotate(0,103.5,49.5)"/><rect x="100" y="52" width="7" height="7" transform="rotate(0,103.5,55.5)"/><rect x="100" y="64" width="7" height="7" transform="rotate(0,103.5,67.5)"/><rect x="100" y="76" width="7" height="7" transform="rotate(0,103.5,79.5)"/><rect x="100" y="94" width="7" height="7" transform="rotate(0,103.5,97.5)"/><rect x="100" y="100" width="7" height="7" transform="rotate(0,103.5,103.5)"/><rect x="100" y="106" width="7" height="7" transform="rotate(0,103.5,109.5)"/><rect x="100" y="112" width="7" height="7" transform="rotate(0,103.5,115.5)"/><rect x="100" y="118" width="7" height="7" transform="rotate(0,103.5,121.5)"/><rect x="100" y="131" width="7" height="7" transform="rotate(0,103.5,134.5)"/><rect x="100" y="143" width="7" height="7" transform="rotate(0,103.5,146.5)"/><rect x="100" y="149" width="7" height="7" transform="rotate(0,103.5,152.5)"/><rect x="100" y="161" width="7" height="7" transform="rotate(0,103.5,164.5)"/><rect x="100" y="167" width="7" height="7" transform="rotate(0,103.5,170.5)"/><rect x="100" y="173" width="7" height="7" transform="rotate(0,103.5,176.5)"/><rect x="100" y="179" width="7" height="7" transform="rotate(0,103.5,182.5)"/><rect x="100" y="191" width="7" height="7" transform="rotate(0,103.5,194.5)"/><rect x="100" y="215" width="7" height="7" transform="rotate(0,103.5,218.5)"/><rect x="100" y="221" width="7" height="7" transform="rotate(0,103.5,224.5)"/><rect x="100" y="227" width="7" height="7" transform="rotate(0,103.5,230.5)"/><rect x="100" y="233" width="7" height="7" transform="rotate(0,103.5,236.5)"/><rect x="106" y="16" width="7" height="7" transform="rotate(0,109.5,19.5)"/><rect x="106" y="22" width="7" height="7" transform="rotate(0,109.5,25.5)"/><rect x="106" y="46" width="7" height="7" transform="rotate(0,109.5,49.5)"/><rect x="106" y="58" width="7" height="7" transform="rotate(0,109.5,61.5)"/><rect x="106" y="82" width="7" height="7" transform="rotate(0,109.5,85.5)"/><rect x="106" y="88" width="7" height="7" transform="rotate(0,109.5,91.5)"/><rect x="106" y="94" width="7" height="7" transform="rotate(0,109.5,97.5)"/><rect x="106" y="100" width="7" height="7" transform="rotate(0,109.5,103.5)"/><rect x="106" y="124" width="7" height="7" transform="rotate(0,109.5,127.5)"/><rect x="106" y="131" width="7" height="7" transform="rotate(0,109.5,134.5)"/><rect x="106" y="173" width="7" height="7" transform="rotate(0,109.5,176.5)"/><rect x="106" y="185" width="7" height="7" transform="rotate(0,109.5,188.5)"/><rect x="106" y="191" width="7" height="7" transform="rotate(0,109.5,194.5)"/><rect x="106" y="203" width="7" height="7" transform="rotate(0,109.5,206.5)"/><rect x="106" y="209" width="7" height="7" transform="rotate(0,109.5,212.5)"/><rect x="106" y="215" width="7" height="7" transform="rotate(0,109.5,218.5)"/><rect x="106" y="221" width="7" height="7" transform="rotate(0,109.5,224.5)"/><rect x="112" y="34" width="7" height="7" transform="rotate(0,115.5,37.5)"/><rect x="112" y="52" width="7" height="7" transform="rotate(0,115.5,55.5)"/><rect x="112" y="58" width="7" height="7" transform="rotate(0,115.5,61.5)"/><rect x="112" y="76" width="7" height="7" transform="rotate(0,115.5,79.5)"/><rect x="112" y="82" width="7" height="7" transform="rotate(0,115.5,85.5)"/><rect x="112" y="94" width="7" height="7" transform="rotate(0,115.5,97.5)"/><rect x="112" y="100" width="7" height="7" transform="rotate(0,115.5,103.5)"/><rect x="112" y="106" width="7" height="7" transform="rotate(0,115.5,109.5)"/><rect x="112" y="124" width="7" height="7" transform="rotate(0,115.5,127.5)"/><rect x="112" y="131" width="7" height="7" transform="rotate(0,115.5,134.5)"/><rect x="112" y="137" width="7" height="7" transform="rotate(0,115.5,140.5)"/><rect x="112" y="143" width="7" height="7" transform="rotate(0,115.5,146.5)"/><rect x="112" y="149" width="7" height="7" transform="rotate(0,115.5,152.5)"/><rect x="112" y="155" width="7" height="7" transform="rotate(0,115.5,158.5)"/><rect x="112" y="167" width="7" height="7" transform="rotate(0,115.5,170.5)"/><rect x="112" y="173" width="7" height="7" transform="rotate(0,115.5,176.5)"/><rect x="112" y="179" width="7" height="7" transform="rotate(0,115.5,182.5)"/><rect x="112" y="197" width="7" height="7" transform="rotate(0,115.5,200.5)"/><rect x="112" y="221" width="7" height="7" transform="rotate(0,115.5,224.5)"/><rect x="118" y="16" width="7" height="7" transform="rotate(0,121.5,19.5)"/><rect x="118" y="22" width="7" height="7" transform="rotate(0,121.5,25.5)"/><rect x="118" y="40" width="7" height="7" transform="rotate(0,121.5,43.5)"/><rect x="118" y="46" width="7" height="7" transform="rotate(0,121.5,49.5)"/><rect x="118" y="82" width="7" height="7" transform="rotate(0,121.5,85.5)"/><rect x="118" y="100" width="7" height="7" transform="rotate(0,121.5,103.5)"/><rect x="118" y="106" width="7" height="7" transform="rotate(0,121.5,109.5)"/><rect x="118" y="112" width="7" height="7" transform="rotate(0,121.5,115.5)"/><rect x="118" y="118" width="7" height="7" transform="rotate(0,121.5,121.5)"/><rect x="118" y="131" width="7" height="7" transform="rotate(0,121.5,134.5)"/><rect x="118" y="137" width="7" height="7" transform="rotate(0,121.5,140.5)"/><rect x="118" y="149" width="7" height="7" transform="rotate(0,121.5,152.5)"/><rect x="118" y="155" width="7" height="7" transform="rotate(0,121.5,158.5)"/><rect x="118" y="173" width="7" height="7" transform="rotate(0,121.5,176.5)"/><rect x="118" y="179" width="7" height="7" transform="rotate(0,121.5,182.5)"/><rect x="118" y="197" width="7" height="7" transform="rotate(0,121.5,200.5)"/><rect x="118" y="221" width="7" height="7" transform="rotate(0,121.5,224.5)"/><rect x="118" y="227" width="7" height="7" transform="rotate(0,121.5,230.5)"/><rect x="124" y="16" width="7" height="7" transform="rotate(0,127.5,19.5)"/><rect x="124" y="22" width="7" height="7" transform="rotate(0,127.5,25.5)"/><rect x="124" y="28" width="7" height="7" transform="rotate(0,127.5,31.5)"/><rect x="124" y="34" width="7" height="7" transform="rotate(0,127.5,37.5)"/><rect x="124" y="40" width="7" height="7" transform="rotate(0,127.5,43.5)"/><rect x="124" y="52" width="7" height="7" transform="rotate(0,127.5,55.5)"/><rect x="124" y="64" width="7" height="7" transform="rotate(0,127.5,67.5)"/><rect x="124" y="76" width="7" height="7" transform="rotate(0,127.5,79.5)"/><rect x="124" y="82" width="7" height="7" transform="rotate(0,127.5,85.5)"/><rect x="124" y="88" width="7" height="7" transform="rotate(0,127.5,91.5)"/><rect x="124" y="94" width="7" height="7" transform="rotate(0,127.5,97.5)"/><rect x="124" y="137" width="7" height="7" transform="rotate(0,127.5,140.5)"/><rect x="124" y="143" width="7" height="7" transform="rotate(0,127.5,146.5)"/><rect x="124" y="155" width="7" height="7" transform="rotate(0,127.5,158.5)"/><rect x="124" y="167" width="7" height="7" transform="rotate(0,127.5,170.5)"/><rect x="124" y="179" width="7" height="7" transform="rotate(0,127.5,182.5)"/><rect x="124" y="191" width="7" height="7" transform="rotate(0,127.5,194.5)"/><rect x="124" y="197" width="7" height="7" transform="rotate(0,127.5,200.5)"/><rect x="124" y="209" width="7" height="7" transform="rotate(0,127.5,212.5)"/><rect x="124" y="233" width="7" height="7" transform="rotate(0,127.5,236.5)"/><rect x="131" y="16" width="7" height="7" transform="rotate(0,134.5,19.5)"/><rect x="131" y="22" width="7" height="7" transform="rotate(0,134.5,25.5)"/><rect x="131" y="46" width="7" height="7" transform="rotate(0,134.5,49.5)"/><rect x="131" y="58" width="7" height="7" transform="rotate(0,134.5,61.5)"/><rect x="131" y="76" width="7" height="7" transform="rotate(0,134.5,79.5)"/><rect x="131" y="88" width="7" height="7" transform="rotate(0,134.5,91.5)"/><rect x="131" y="106" width="7" height="7" transform="rotate(0,134.5,109.5)"/><rect x="131" y="118" width="7" height="7" transform="rotate(0,134.5,121.5)"/><rect x="131" y="131" width="7" height="7" transform="rotate(0,134.5,134.5)"/><rect x="131" y="149" width="7" height="7" transform="rotate(0,134.5,152.5)"/><rect x="131" y="167" width="7" height="7" transform="rotate(0,134.5,170.5)"/><rect x="131" y="173" width="7" height="7" transform="rotate(0,134.5,176.5)"/><rect x="131" y="191" width="7" height="7" transform="rotate(0,134.5,194.5)"/><rect x="131" y="215" width="7" height="7" transform="rotate(0,134.5,218.5)"/><rect x="131" y="227" width="7" height="7" transform="rotate(0,134.5,230.5)"/><rect x="137" y="22" width="7" height="7" transform="rotate(0,140.5,25.5)"/><rect x="137" y="28" width="7" height="7" transform="rotate(0,140.5,31.5)"/><rect x="137" y="40" width="7" height="7" transform="rotate(0,140.5,43.5)"/><rect x="137" y="46" width="7" height="7" transform="rotate(0,140.5,49.5)"/><rect x="137" y="52" width="7" height="7" transform="rotate(0,140.5,55.5)"/><rect x="137" y="58" width="7" height="7" transform="rotate(0,140.5,61.5)"/><rect x="137" y="64" width="7" height="7" transform="rotate(0,140.5,67.5)"/><rect x="137" y="76" width="7" height="7" transform="rotate(0,140.5,79.5)"/><rect x="137" y="88" width="7" height="7" transform="rotate(0,140.5,91.5)"/><rect x="137" y="94" width="7" height="7" transform="rotate(0,140.5,97.5)"/><rect x="137" y="100" width="7" height="7" transform="rotate(0,140.5,103.5)"/><rect x="137" y="106" width="7" height="7" transform="rotate(0,140.5,109.5)"/><rect x="137" y="112" width="7" height="7" transform="rotate(0,140.5,115.5)"/><rect x="137" y="118" width="7" height="7" transform="rotate(0,140.5,121.5)"/><rect x="137" y="161" width="7" height="7" transform="rotate(0,140.5,164.5)"/><rect x="137" y="173" width="7" height="7" transform="rotate(0,140.5,176.5)"/><rect x="137" y="185" width="7" height="7" transform="rotate(0,140.5,188.5)"/><rect x="137" y="191" width="7" height="7" transform="rotate(0,140.5,194.5)"/><rect x="137" y="197" width="7" height="7" transform="rotate(0,140.5,200.5)"/><rect x="137" y="209" width="7" height="7" transform="rotate(0,140.5,212.5)"/><rect x="137" y="215" width="7" height="7" transform="rotate(0,140.5,218.5)"/><rect x="143" y="16" width="7" height="7" transform="rotate(0,146.5,19.5)"/><rect x="143" y="34" width="7" height="7" transform="rotate(0,146.5,37.5)"/><rect x="143" y="40" width="7" height="7" transform="rotate(0,146.5,43.5)"/><rect x="143" y="70" width="7" height="7" transform="rotate(0,146.5,73.5)"/><rect x="143" y="76" width="7" height="7" transform="rotate(0,146.5,79.5)"/><rect x="143" y="100" width="7" height="7" transform="rotate(0,146.5,103.5)"/><rect x="143" y="106" width="7" height="7" transform="rotate(0,146.5,109.5)"/><rect x="143" y="124" width="7" height="7" transform="rotate(0,146.5,127.5)"/><rect x="143" y="137" width="7" height="7" transform="rotate(0,146.5,140.5)"/><rect x="143" y="149" width="7" height="7" transform="rotate(0,146.5,152.5)"/><rect x="143" y="155" width="7" height="7" transform="rotate(0,146.5,158.5)"/><rect x="143" y="167" width="7" height="7" transform="rotate(0,146.5,170.5)"/><rect x="143" y="173" width="7" height="7" transform="rotate(0,146.5,176.5)"/><rect x="143" y="179" width="7" height="7" transform="rotate(0,146.5,182.5)"/><rect x="143" y="185" width="7" height="7" transform="rotate(0,146.5,188.5)"/><rect x="143" y="191" width="7" height="7" transform="rotate(0,146.5,194.5)"/><rect x="143" y="203" width="7" height="7" transform="rotate(0,146.5,206.5)"/><rect x="143" y="209" width="7" height="7" transform="rotate(0,146.5,212.5)"/><rect x="143" y="221" width="7" height="7" transform="rotate(0,146.5,224.5)"/><rect x="149" y="16" width="7" height="7" transform="rotate(0,152.5,19.5)"/><rect x="149" y="22" width="7" height="7" transform="rotate(0,152.5,25.5)"/><rect x="149" y="34" width="7" height="7" transform="rotate(0,152.5,37.5)"/><rect x="149" y="46" width="7" height="7" transform="rotate(0,152.5,49.5)"/><rect x="149" y="52" width="7" height="7" transform="rotate(0,152.5,55.5)"/><rect x="149" y="76" width="7" height="7" transform="rotate(0,152.5,79.5)"/><rect x="149" y="100" width="7" height="7" transform="rotate(0,152.5,103.5)"/><rect x="149" y="137" width="7" height="7" transform="rotate(0,152.5,140.5)"/><rect x="149" y="143" width="7" height="7" transform="rotate(0,152.5,146.5)"/><rect x="149" y="155" width="7" height="7" transform="rotate(0,152.5,158.5)"/><rect x="149" y="167" width="7" height="7" transform="rotate(0,152.5,170.5)"/><rect x="149" y="179" width="7" height="7" transform="rotate(0,152.5,182.5)"/><rect x="149" y="191" width="7" height="7" transform="rotate(0,152.5,194.5)"/><rect x="149" y="197" width="7" height="7" transform="rotate(0,152.5,200.5)"/><rect x="149" y="209" width="7" height="7" transform="rotate(0,152.5,212.5)"/><rect x="149" y="215" width="7" height="7" transform="rotate(0,152.5,218.5)"/><rect x="149" y="233" width="7" height="7" transform="rotate(0,152.5,236.5)"/><rect x="155" y="28" width="7" height="7" transform="rotate(0,158.5,31.5)"/><rect x="155" y="34" width="7" height="7" transform="rotate(0,158.5,37.5)"/><rect x="155" y="40" width="7" height="7" transform="rotate(0,158.5,43.5)"/><rect x="155" y="58" width="7" height="7" transform="rotate(0,158.5,61.5)"/><rect x="155" y="64" width="7" height="7" transform="rotate(0,158.5,67.5)"/><rect x="155" y="70" width="7" height="7" transform="rotate(0,158.5,73.5)"/><rect x="155" y="76" width="7" height="7" transform="rotate(0,158.5,79.5)"/><rect x="155" y="106" width="7" height="7" transform="rotate(0,158.5,109.5)"/><rect x="155" y="112" width="7" height="7" transform="rotate(0,158.5,115.5)"/><rect x="155" y="118" width="7" height="7" transform="rotate(0,158.5,121.5)"/><rect x="155" y="131" width="7" height="7" transform="rotate(0,158.5,134.5)"/><rect x="155" y="149" width="7" height="7" transform="rotate(0,158.5,152.5)"/><rect x="155" y="173" width="7" height="7" transform="rotate(0,158.5,176.5)"/><rect x="155" y="179" width="7" height="7" transform="rotate(0,158.5,182.5)"/><rect x="155" y="185" width="7" height="7" transform="rotate(0,158.5,188.5)"/><rect x="155" y="203" width="7" height="7" transform="rotate(0,158.5,206.5)"/><rect x="155" y="215" width="7" height="7" transform="rotate(0,158.5,218.5)"/><rect x="155" y="221" width="7" height="7" transform="rotate(0,158.5,224.5)"/><rect x="155" y="233" width="7" height="7" transform="rotate(0,158.5,236.5)"/><rect x="161" y="40" width="7" height="7" transform="rotate(0,164.5,43.5)"/><rect x="161" y="52" width="7" height="7" transform="rotate(0,164.5,55.5)"/><rect x="161" y="58" width="7" height="7" transform="rotate(0,164.5,61.5)"/><rect x="161" y="76" width="7" height="7" transform="rotate(0,164.5,79.5)"/><rect x="161" y="88" width="7" height="7" transform="rotate(0,164.5,91.5)"/><rect x="161" y="100" width="7" height="7" transform="rotate(0,164.5,103.5)"/><rect x="161" y="106" width="7" height="7" transform="rotate(0,164.5,109.5)"/><rect x="161" y="112" width="7" height="7" transform="rotate(0,164.5,115.5)"/><rect x="161" y="185" width="7" height="7" transform="rotate(0,164.5,188.5)"/><rect x="161" y="197" width="7" height="7" transform="rotate(0,164.5,200.5)"/><rect x="161" y="203" width="7" height="7" transform="rotate(0,164.5,206.5)"/><rect x="161" y="227" width="7" height="7" transform="rotate(0,164.5,230.5)"/><rect x="161" y="233" width="7" height="7" transform="rotate(0,164.5,236.5)"/><rect x="167" y="16" width="7" height="7" transform="rotate(0,170.5,19.5)"/><rect x="167" y="22" width="7" height="7" transform="rotate(0,170.5,25.5)"/><rect x="167" y="28" width="7" height="7" transform="rotate(0,170.5,31.5)"/><rect x="167" y="34" width="7" height="7" transform="rotate(0,170.5,37.5)"/><rect x="167" y="40" width="7" height="7" transform="rotate(0,170.5,43.5)"/><rect x="167" y="70" width="7" height="7" transform="rotate(0,170.5,73.5)"/><rect x="167" y="76" width="7" height="7" transform="rotate(0,170.5,79.5)"/><rect x="167" y="82" width="7" height="7" transform="rotate(0,170.5,85.5)"/><rect x="167" y="88" width="7" height="7" transform="rotate(0,170.5,91.5)"/><rect x="167" y="106" width="7" height="7" transform="rotate(0,170.5,109.5)"/><rect x="167" y="143" width="7" height="7" transform="rotate(0,170.5,146.5)"/><rect x="167" y="149" width="7" height="7" transform="rotate(0,170.5,152.5)"/><rect x="167" y="155" width="7" height="7" transform="rotate(0,170.5,158.5)"/><rect x="167" y="167" width="7" height="7" transform="rotate(0,170.5,170.5)"/><rect x="167" y="173" width="7" height="7" transform="rotate(0,170.5,176.5)"/><rect x="167" y="179" width="7" height="7" transform="rotate(0,170.5,182.5)"/><rect x="167" y="185" width="7" height="7" transform="rotate(0,170.5,188.5)"/><rect x="167" y="209" width="7" height="7" transform="rotate(0,170.5,212.5)"/><rect x="167" y="221" width="7" height="7" transform="rotate(0,170.5,224.5)"/><rect x="173" y="16" width="7" height="7" transform="rotate(0,176.5,19.5)"/><rect x="173" y="22" width="7" height="7" transform="rotate(0,176.5,25.5)"/><rect x="173" y="28" width="7" height="7" transform="rotate(0,176.5,31.5)"/><rect x="173" y="34" width="7" height="7" transform="rotate(0,176.5,37.5)"/><rect x="173" y="52" width="7" height="7" transform="rotate(0,176.5,55.5)"/><rect x="173" y="58" width="7" height="7" transform="rotate(0,176.5,61.5)"/><rect x="173" y="82" width="7" height="7" transform="rotate(0,176.5,85.5)"/><rect x="173" y="94" width="7" height="7" transform="rotate(0,176.5,97.5)"/><rect x="173" y="106" width="7" height="7" transform="rotate(0,176.5,109.5)"/><rect x="173" y="112" width="7" height="7" transform="rotate(0,176.5,115.5)"/><rect x="173" y="124" width="7" height="7" transform="rotate(0,176.5,127.5)"/><rect x="173" y="137" width="7" height="7" transform="rotate(0,176.5,140.5)"/><rect x="173" y="161" width="7" height="7" transform="rotate(0,176.5,164.5)"/><rect x="173" y="173" width="7" height="7" transform="rotate(0,176.5,176.5)"/><rect x="173" y="179" width="7" height="7" transform="rotate(0,176.5,182.5)"/><rect x="173" y="197" width="7" height="7" transform="rotate(0,176.5,200.5)"/><rect x="173" y="203" width="7" height="7" transform="rotate(0,176.5,206.5)"/><rect x="173" y="221" width="7" height="7" transform="rotate(0,176.5,224.5)"/><rect x="173" y="227" width="7" height="7" transform="rotate(0,176.5,230.5)"/><rect x="173" y="233" width="7" height="7" transform="rotate(0,176.5,236.5)"/><rect x="179" y="16" width="7" height="7" transform="rotate(0,182.5,19.5)"/><rect x="179" y="28" width="7" height="7" transform="rotate(0,182.5,31.5)"/><rect x="179" y="40" width="7" height="7" transform="rotate(0,182.5,43.5)"/><rect x="179" y="46" width="7" height="7" transform="rotate(0,182.5,49.5)"/><rect x="179" y="70" width="7" height="7" transform="rotate(0,182.5,73.5)"/><rect x="179" y="76" width="7" height="7" transform="rotate(0,182.5,79.5)"/><rect x="179" y="100" width="7" height="7" transform="rotate(0,182.5,103.5)"/><rect x="179" y="106" width="7" height="7" transform="rotate(0,182.5,109.5)"/><rect x="179" y="131" width="7" height="7" transform="rotate(0,182.5,134.5)"/><rect x="179" y="137" width="7" height="7" transform="rotate(0,182.5,140.5)"/><rect x="179" y="149" width="7" height="7" transform="rotate(0,182.5,152.5)"/><rect x="179" y="161" width="7" height="7" transform="rotate(0,182.5,164.5)"/><rect x="179" y="185" width="7" height="7" transform="rotate(0,182.5,188.5)"/><rect x="179" y="191" width="7" height="7" transform="rotate(0,182.5,194.5)"/><rect x="179" y="203" width="7" height="7" transform="rotate(0,182.5,206.5)"/><rect x="179" y="209" width="7" height="7" transform="rotate(0,182.5,212.5)"/><rect x="179" y="215" width="7" height="7" transform="rotate(0,182.5,218.5)"/><rect x="179" y="221" width="7" height="7" transform="rotate(0,182.5,224.5)"/><rect x="185" y="16" width="7" height="7" transform="rotate(0,188.5,19.5)"/><rect x="185" y="46" width="7" height="7" transform="rotate(0,188.5,49.5)"/><rect x="185" y="52" width="7" height="7" transform="rotate(0,188.5,55.5)"/><rect x="185" y="70" width="7" height="7" transform="rotate(0,188.5,73.5)"/><rect x="185" y="76" width="7" height="7" transform="rotate(0,188.5,79.5)"/><rect x="185" y="82" width="7" height="7" transform="rotate(0,188.5,85.5)"/><rect x="185" y="100" width="7" height="7" transform="rotate(0,188.5,103.5)"/><rect x="185" y="106" width="7" height="7" transform="rotate(0,188.5,109.5)"/><rect x="185" y="112" width="7" height="7" transform="rotate(0,188.5,115.5)"/><rect x="185" y="124" width="7" height="7" transform="rotate(0,188.5,127.5)"/><rect x="185" y="149" width="7" height="7" transform="rotate(0,188.5,152.5)"/><rect x="185" y="155" width="7" height="7" transform="rotate(0,188.5,158.5)"/><rect x="185" y="167" width="7" height="7" transform="rotate(0,188.5,170.5)"/><rect x="185" y="185" width="7" height="7" transform="rotate(0,188.5,188.5)"/><rect x="185" y="191" width="7" height="7" transform="rotate(0,188.5,194.5)"/><rect x="185" y="197" width="7" height="7" transform="rotate(0,188.5,200.5)"/><rect x="185" y="203" width="7" height="7" transform="rotate(0,188.5,206.5)"/><rect x="185" y="209" width="7" height="7" transform="rotate(0,188.5,212.5)"/><rect x="185" y="215" width="7" height="7" transform="rotate(0,188.5,218.5)"/><rect x="185" y="221" width="7" height="7" transform="rotate(0,188.5,224.5)"/><rect x="185" y="227" width="7" height="7" transform="rotate(0,188.5,230.5)"/><rect x="185" y="233" width="7" height="7" transform="rotate(0,188.5,236.5)"/><rect x="191" y="64" width="7" height="7" transform="rotate(0,194.5,67.5)"/><rect x="191" y="82" width="7" height="7" transform="rotate(0,194.5,85.5)"/><rect x="191" y="88" width="7" height="7" transform="rotate(0,194.5,91.5)"/><rect x="191" y="100" width="7" height="7" transform="rotate(0,194.5,103.5)"/><rect x="191" y="112" width="7" height="7" transform="rotate(0,194.5,115.5)"/><rect x="191" y="137" width="7" height="7" transform="rotate(0,194.5,140.5)"/><rect x="191" y="185" width="7" height="7" transform="rotate(0,194.5,188.5)"/><rect x="191" y="209" width="7" height="7" transform="rotate(0,194.5,212.5)"/><rect x="191" y="215" width="7" height="7" transform="rotate(0,194.5,218.5)"/><rect x="191" y="221" width="7" height="7" transform="rotate(0,194.5,224.5)"/><rect x="191" y="227" width="7" height="7" transform="rotate(0,194.5,230.5)"/><rect x="197" y="76" width="7" height="7" transform="rotate(0,200.5,79.5)"/><rect x="197" y="82" width="7" height="7" transform="rotate(0,200.5,85.5)"/><rect x="197" y="94" width="7" height="7" transform="rotate(0,200.5,97.5)"/><rect x="197" y="106" width="7" height="7" transform="rotate(0,200.5,109.5)"/><rect x="197" y="131" width="7" height="7" transform="rotate(0,200.5,134.5)"/><rect x="197" y="149" width="7" height="7" transform="rotate(0,200.5,152.5)"/><rect x="197" y="155" width="7" height="7" transform="rotate(0,200.5,158.5)"/><rect x="197" y="167" width="7" height="7" transform="rotate(0,200.5,170.5)"/><rect x="197" y="173" width="7" height="7" transform="rotate(0,200.5,176.5)"/><rect x="197" y="185" width="7" height="7" transform="rotate(0,200.5,188.5)"/><rect x="197" y="197" width="7" height="7" transform="rotate(0,200.5,200.5)"/><rect x="197" y="209" width="7" height="7" transform="rotate(0,200.5,212.5)"/><rect x="197" y="215" width="7" height="7" transform="rotate(0,200.5,218.5)"/><rect x="197" y="221" width="7" height="7" transform="rotate(0,200.5,224.5)"/><rect x="197" y="227" width="7" height="7" transform="rotate(0,200.5,230.5)"/><rect x="197" y="233" width="7" height="7" transform="rotate(0,200.5,236.5)"/><rect x="203" y="64" width="7" height="7" transform="rotate(0,206.5,67.5)"/><rect x="203" y="70" width="7" height="7" transform="rotate(0,206.5,73.5)"/><rect x="203" y="82" width="7" height="7" transform="rotate(0,206.5,85.5)"/><rect x="203" y="94" width="7" height="7" transform="rotate(0,206.5,97.5)"/><rect x="203" y="100" width="7" height="7" transform="rotate(0,206.5,103.5)"/><rect x="203" y="112" width="7" height="7" transform="rotate(0,206.5,115.5)"/><rect x="203" y="124" width="7" height="7" transform="rotate(0,206.5,127.5)"/><rect x="203" y="131" width="7" height="7" transform="rotate(0,206.5,134.5)"/><rect x="203" y="149" width="7" height="7" transform="rotate(0,206.5,152.5)"/><rect x="203" y="161" width="7" height="7" transform="rotate(0,206.5,164.5)"/><rect x="203" y="167" width="7" height="7" transform="rotate(0,206.5,170.5)"/><rect x="203" y="173" width="7" height="7" transform="rotate(0,206.5,176.5)"/><rect x="203" y="179" width="7" height="7" transform="rotate(0,206.5,182.5)"/><rect x="203" y="185" width="7" height="7" transform="rotate(0,206.5,188.5)"/><rect x="203" y="209" width="7" height="7" transform="rotate(0,206.5,212.5)"/><rect x="203" y="215" width="7" height="7" transform="rotate(0,206.5,218.5)"/><rect x="209" y="64" width="7" height="7" transform="rotate(0,212.5,67.5)"/><rect x="209" y="76" width="7" height="7" transform="rotate(0,212.5,79.5)"/><rect x="209" y="82" width="7" height="7" transform="rotate(0,212.5,85.5)"/><rect x="209" y="88" width="7" height="7" transform="rotate(0,212.5,91.5)"/><rect x="209" y="106" width="7" height="7" transform="rotate(0,212.5,109.5)"/><rect x="209" y="112" width="7" height="7" transform="rotate(0,212.5,115.5)"/><rect x="209" y="124" width="7" height="7" transform="rotate(0,212.5,127.5)"/><rect x="209" y="131" width="7" height="7" transform="rotate(0,212.5,134.5)"/><rect x="209" y="143" width="7" height="7" transform="rotate(0,212.5,146.5)"/><rect x="209" y="149" width="7" height="7" transform="rotate(0,212.5,152.5)"/><rect x="209" y="155" width="7" height="7" transform="rotate(0,212.5,158.5)"/><rect x="209" y="161" width="7" height="7" transform="rotate(0,212.5,164.5)"/><rect x="209" y="173" width="7" height="7" transform="rotate(0,212.5,176.5)"/><rect x="209" y="179" width="7" height="7" transform="rotate(0,212.5,182.5)"/><rect x="209" y="185" width="7" height="7" transform="rotate(0,212.5,188.5)"/><rect x="209" y="191" width="7" height="7" transform="rotate(0,212.5,194.5)"/><rect x="209" y="197" width="7" height="7" transform="rotate(0,212.5,200.5)"/><rect x="209" y="203" width="7" height="7" transform="rotate(0,212.5,206.5)"/><rect x="209" y="209" width="7" height="7" transform="rotate(0,212.5,212.5)"/><rect x="209" y="233" width="7" height="7" transform="rotate(0,212.5,236.5)"/><rect x="215" y="64" width="7" height="7" transform="rotate(0,218.5,67.5)"/><rect x="215" y="70" width="7" height="7" transform="rotate(0,218.5,73.5)"/><rect x="215" y="88" width="7" height="7" transform="rotate(0,218.5,91.5)"/><rect x="215" y="100" width="7" height="7" transform="rotate(0,218.5,103.5)"/><rect x="215" y="106" width="7" height="7" transform="rotate(0,218.5,109.5)"/><rect x="215" y="124" width="7" height="7" transform="rotate(0,218.5,127.5)"/><rect x="215" y="149" width="7" height="7" transform="rotate(0,218.5,152.5)"/><rect x="215" y="155" width="7" height="7" transform="rotate(0,218.5,158.5)"/><rect x="215" y="185" width="7" height="7" transform="rotate(0,218.5,188.5)"/><rect x="215" y="197" width="7" height="7" transform="rotate(0,218.5,200.5)"/><rect x="215" y="215" width="7" height="7" transform="rotate(0,218.5,218.5)"/><rect x="215" y="227" width="7" height="7" transform="rotate(0,218.5,230.5)"/><rect x="221" y="88" width="7" height="7" transform="rotate(0,224.5,91.5)"/><rect x="221" y="94" width="7" height="7" transform="rotate(0,224.5,97.5)"/><rect x="221" y="106" width="7" height="7" transform="rotate(0,224.5,109.5)"/><rect x="221" y="112" width="7" height="7" transform="rotate(0,224.5,115.5)"/><rect x="221" y="131" width="7" height="7" transform="rotate(0,224.5,134.5)"/><rect x="221" y="137" width="7" height="7" transform="rotate(0,224.5,140.5)"/><rect x="221" y="149" width="7" height="7" transform="rotate(0,224.5,152.5)"/><rect x="221" y="155" width="7" height="7" transform="rotate(0,224.5,158.5)"/><rect x="221" y="161" width="7" height="7" transform="rotate(0,224.5,164.5)"/><rect x="221" y="203" width="7" height="7" transform="rotate(0,224.5,206.5)"/><rect x="221" y="209" width="7" height="7" transform="rotate(0,224.5,212.5)"/><rect x="221" y="221" width="7" height="7" transform="rotate(0,224.5,224.5)"/><rect x="221" y="227" width="7" height="7" transform="rotate(0,224.5,230.5)"/><rect x="221" y="233" width="7" height="7" transform="rotate(0,224.5,236.5)"/><rect x="227" y="64" width="7" height="7" transform="rotate(0,230.5,67.5)"/><rect x="227" y="70" width="7" height="7" transform="rotate(0,230.5,73.5)"/><rect x="227" y="82" width="7" height="7" transform="rotate(0,230.5,85.5)"/><rect x="227" y="88" width="7" height="7" transform="rotate(0,230.5,91.5)"/><rect x="227" y="100" width="7" height="7" transform="rotate(0,230.5,103.5)"/><rect x="227" y="118" width="7" height="7" transform="rotate(0,230.5,121.5)"/><rect x="227" y="131" width="7" height="7" transform="rotate(0,230.5,134.5)"/><rect x="227" y="137" width="7" height="7" transform="rotate(0,230.5,140.5)"/><rect x="227" y="149" width="7" height="7" transform="rotate(0,230.5,152.5)"/><rect x="227" y="155" width="7" height="7" transform="rotate(0,230.5,158.5)"/><rect x="227" y="173" width="7" height="7" transform="rotate(0,230.5,176.5)"/><rect x="227" y="179" width="7" height="7" transform="rotate(0,230.5,182.5)"/><rect x="227" y="191" width="7" height="7" transform="rotate(0,230.5,194.5)"/><rect x="227" y="203" width="7" height="7" transform="rotate(0,230.5,206.5)"/><rect x="227" y="215" width="7" height="7" transform="rotate(0,230.5,218.5)"/><rect x="227" y="221" width="7" height="7" transform="rotate(0,230.5,224.5)"/><rect x="227" y="227" width="7" height="7" transform="rotate(0,230.5,230.5)"/><rect x="227" y="233" width="7" height="7" transform="rotate(0,230.5,236.5)"/><rect x="233" y="76" width="7" height="7" transform="rotate(0,236.5,79.5)"/><rect x="233" y="82" width="7" height="7" transform="rotate(0,236.5,85.5)"/><rect x="233" y="94" width="7" height="7" transform="rotate(0,236.5,97.5)"/><rect x="233" y="100" width="7" height="7" transform="rotate(0,236.5,103.5)"/><rect x="233" y="112" width="7" height="7" transform="rotate(0,236.5,115.5)"/><rect x="233" y="118" width="7" height="7" transform="rotate(0,236.5,121.5)"/><rect x="233" y="124" width="7" height="7" transform="rotate(0,236.5,127.5)"/><rect x="233" y="137" width="7" height="7" transform="rotate(0,236.5,140.5)"/><rect x="233" y="155" width="7" height="7" transform="rotate(0,236.5,158.5)"/><rect x="233" y="167" width="7" height="7" transform="rotate(0,236.5,170.5)"/><rect x="233" y="185" width="7" height="7" transform="rotate(0,236.5,188.5)"/><rect x="233" y="191" width="7" height="7" transform="rotate(0,236.5,194.5)"/><rect x="233" y="209" width="7" height="7" transform="rotate(0,236.5,212.5)"/><rect x="233" y="215" width="7" height="7" transform="rotate(0,236.5,218.5)"/><rect x="233" y="233" width="7" height="7" transform="rotate(0,236.5,236.5)"/></clipPath><clipPath id="clip-path-corners-square-color-0-0"><rect x="16" y="16" width="7" height="7" transform="rotate(0,19.5,19.5)"/><rect x="16" y="22" width="7" height="7" transform="rotate(0,19.5,25.5)"/><rect x="16" y="28" width="7" height="7" transform="rotate(0,19.5,31.5)"/><rect x="16" y="34" width="7" height="7" transform="rotate(0,19.5,37.5)"/><rect x="16" y="40" width="7" height="7" transform="rotate(0,19.5,43.5)"/><rect x="16" y="46" width="7" height="7" transform="rotate(0,19.5,49.5)"/><rect x="16" y="52" width="7" height="7" transform="rotate(0,19.5,55.5)"/><rect x="22" y="16" width="7" height="7" transform="rotate(0,25.5,19.5)"/><rect x="22" y="52" width="7" height="7" transform="rotate(0,25.5,55.5)"/><rect x="28" y="16" width="7" height="7" transform="rotate(0,31.5,19.5)"/><rect x="28" y="52" width="7" height="7" transform="rotate(0,31.5,55.5)"/><rect x="34" y="16" width="7" height="7" transform="rotate(0,37.5,19.5)"/><rect x="34" y="52" width="7" height="7" transform="rotate(0,37.5,55.5)"/><rect x="40" y="16" width="7" height="7" transform="rotate(0,43.5,19.5)"/><rect x="40" y="52" width="7" height="7" transform="rotate(0,43.5,55.5)"/><rect x="46" y="16" width="7" height="7" transform="rotate(0,49.5,19.5)"/><rect x="46" y="52" width="7" height="7" transform="rotate(0,49.5,55.5)"/><rect x="52" y="16" width="7" height="7" transform="rotate(0,55.5,19.5)"/><rect x="52" y="22" width="7" height="7" transform="rotate(0,55.5,25.5)"/><rect x="52" y="28" width="7" height="7" transform="rotate(0,55.5,31.5)"/><rect x="52" y="34" width="7" height="7" transform="rotate(0,55.5,37.5)"/><rect x="52" y="40" width="7" height="7" transform="rotate(0,55.5,43.5)"/><rect x="52" y="46" width="7" height="7" transform="rotate(0,55.5,49.5)"/><rect x="52" y="52" width="7" height="7" transform="rotate(0,55.5,55.5)"/></clipPath><clipPath id="clip-path-corners-dot-color-0-0"><rect x="28" y="28" width="7" height="7" transform="rotate(0,31.5,31.5)"/><rect x="28" y="34" width="7" height="7" transform="rotate(0,31.5,37.5)"/><rect x="28" y="40" width="7" height="7" transform="rotate(0,31.5,43.5)"/><rect x="34" y="28" width="7" height="7" transform="rotate(0,37.5,31.5)"/><rect x="34" y="34" width="7" height="7" transform="rotate(0,37.5,37.5)"/><rect x="34" y="40" width="7" height="7" transform="rotate(0,37.5,43.5)"/><rect x="40" y="28" width="7" height="7" transform="rotate(0,43.5,31.5)"/><rect x="40" y="34" width="7" height="7" transform="rotate(0,43.5,37.5)"/><rect x="40" y="40" width="7" height="7" transform="rotate(0,43.5,43.5)"/></clipPath><clipPath id="clip-path-corners-square-color-1-0"><rect x="197" y="16" width="7" height="7" transform="rotate(0,200.5,19.5)"/><rect x="197" y="22" width="7" height="7" transform="rotate(0,200.5,25.5)"/><rect x="197" y="28" width="7" height="7" transform="rotate(0,200.5,31.5)"/><rect x="197" y="34" width="7" height="7" transform="rotate(0,200.5,37.5)"/><rect x="197" y="40" width="7" height="7" transform="rotate(0,200.5,43.5)"/><rect x="197" y="46" width="7" height="7" transform="rotate(0,200.5,49.5)"/><rect x="197" y="52" width="7" height="7" transform="rotate(0,200.5,55.5)"/><rect x="203" y="16" width="7" height="7" transform="rotate(0,206.5,19.5)"/><rect x="203" y="52" width="7" height="7" transform="rotate(0,206.5,55.5)"/><rect x="209" y="16" width="7" height="7" transform="rotate(0,212.5,19.5)"/><rect x="209" y="52" width="7" height="7" transform="rotate(0,212.5,55.5)"/><rect x="215" y="16" width="7" height="7" transform="rotate(0,218.5,19.5)"/><rect x="215" y="52" width="7" height="7" transform="rotate(0,218.5,55.5)"/><rect x="221" y="16" width="7" height="7" transform="rotate(0,224.5,19.5)"/><rect x="221" y="52" width="7" height="7" transform="rotate(0,224.5,55.5)"/><rect x="227" y="16" width="7" height="7" transform="rotate(0,230.5,19.5)"/><rect x="227" y="52" width="7" height="7" transform="rotate(0,230.5,55.5)"/><rect x="233" y="16" width="7" height="7" transform="rotate(0,236.5,19.5)"/><rect x="233" y="22" width="7" height="7" transform="rotate(0,236.5,25.5)"/><rect x="233" y="28" width="7" height="7" transform="rotate(0,236.5,31.5)"/><rect x="233" y="34" width="7" height="7" transform="rotate(0,236.5,37.5)"/><rect x="233" y="40" width="7" height="7" transform="rotate(0,236.5,43.5)"/><rect x="233" y="46" width="7" height="7" transform="rotate(0,236.5,49.5)"/><rect x="233" y="52" width="7" height="7" transform="rotate(0,236.5,55.5)"/></clipPath><clipPath id="clip-path-corners-dot-color-1-0"><rect x="209" y="28" width="7" height="7" transform="rotate(0,212.5,31.5)"/><rect x="209" y="34" width="7" height="7" transform="rotate(0,212.5,37.5)"/><rect x="209" y="40" width="7" height="7" transform="rotate(0,212.5,43.5)"/><rect x="215" y="28" width="7" height="7" transform="rotate(0,218.5,31.5)"/><rect x="215" y="34" width="7" height="7" transform="rotate(0,218.5,37.5)"/><rect x="215" y="40" width="7" height="7" transform="rotate(0,218.5,43.5)"/><rect x="221" y="28" width="7" height="7" transform="rotate(0,224.5,31.5)"/><rect x="221" y="34" width="7" height="7" transform="rotate(0,224.5,37.5)"/><rect x="221" y="40" width="7" height="7" transform="rotate(0,224.5,43.5)"/></clipPath><clipPath id="clip-path-corners-square-color-0-1"><rect x="16" y="197" width="7" height="7" transform="rotate(0,19.5,200.5)"/><rect x="16" y="203" width="7" height="7" transform="rotate(0,19.5,206.5)"/><rect x="16" y="209" width="7" height="7" transform="rotate(0,19.5,212.5)"/><rect x="16" y="215" width="7" height="7" transform="rotate(0,19.5,218.5)"/><rect x="16" y="221" width="7" height="7" transform="rotate(0,19.5,224.5)"/><rect x="16" y="227" width="7" height="7" transform="rotate(0,19.5,230.5)"/><rect x="16" y="233" width="7" height="7" transform="rotate(0,19.5,236.5)"/><rect x="22" y="197" width="7" height="7" transform="rotate(0,25.5,200.5)"/><rect x="22" y="233" width="7" height="7" transform="rotate(0,25.5,236.5)"/><rect x="28" y="197" width="7" height="7" transform="rotate(0,31.5,200.5)"/><rect x="28" y="233" width="7" height="7" transform="rotate(0,31.5,236.5)"/><rect x="34" y="197" width="7" height="7" transform="rotate(0,37.5,200.5)"/><rect x="34" y="233" width="7" height="7" transform="rotate(0,37.5,236.5)"/><rect x="40" y="197" width="7" height="7" transform="rotate(0,43.5,200.5)"/><rect x="40" y="233" width="7" height="7" transform="rotate(0,43.5,236.5)"/><rect x="46" y="197" width="7" height="7" transform="rotate(0,49.5,200.5)"/><rect x="46" y="233" width="7" height="7" transform="rotate(0,49.5,236.5)"/><rect x="52" y="197" width="7" height="7" transform="rotate(0,55.5,200.5)"/><rect x="52" y="203" width="7" height="7" transform="rotate(0,55.5,206.5)"/><rect x="52" y="209" width="7" height="7" transform="rotate(0,55.5,212.5)"/><rect x="52" y="215" width="7" height="7" transform="rotate(0,55.5,218.5)"/><rect x="52" y="221" width="7" height="7" transform="rotate(0,55.5,224.5)"/><rect x="52" y="227" width="7" height="7" transform="rotate(0,55.5,230.5)"/><rect x="52" y="233" width="7" height="7" transform="rotate(0,55.5,236.5)"/></clipPath><clipPath id="clip-path-corners-dot-color-0-1"><rect x="28" y="209" width="7" height="7" transform="rotate(0,31.5,212.5)"/><rect x="28" y="215" width="7" height="7" transform="rotate(0,31.5,218.5)"/><rect x="28" y="221" width="7" height="7" transform="rotate(0,31.5,224.5)"/><rect x="34" y="209" width="7" height="7" transform="rotate(0,37.5,212.5)"/><rect x="34" y="215" width="7" height="7" transform="rotate(0,37.5,218.5)"/><rect x="34" y="221" width="7" height="7" transform="rotate(0,37.5,224.5)"/><rect x="40" y="209" width="7" height="7" transform="rotate(0,43.5,212.5)"/><rect x="40" y="215" width="7" height="7" transform="rotate(0,43.5,218.5)"/><rect x="40" y="221" width="7" height="7" transform="rotate(0,43.5,224.5)"/></clipPath></defs><rect x="0" y="0" height="256" width="256" clip-path="url('#clip-path-background-color')" fill="#fff"/><rect x="16" y="16" height="224" width="224" clip-path="url('#clip-path-dot-color')" fill="#000"/><rect x="16" y="16" height="43" width="43" clip-path="url('#clip-path-corners-square-color-0-0')" fill="#000"/><rect x="28" y="28" height="19" width="19" clip-path="url('#clip-path-corners-dot-color-0-0')" fill="#000"/><rect x="197" y="16" height="43" width="43" clip-path="url('#clip-path-corners-square-color-1-0')" fill="#000"/><rect x="209" y="28" height="19" width="19" clip-path="url('#clip-path-corners-dot-color-1-0')" fill="#000"/><rect x="16" y="197" height="43" width="43" clip-path="url('#clip-path-corners-square-color-0-1')" fill="#000"/><rect x="28" y="209" height="19" width="19" clip-path="url('#clip-path-corners-dot-color-0-1')" fill="#000"/></svg>